HIERARCHY
ROOT Hips
{
  OFFSET 279.157 85.6768 304.565
  CHANNELS 6 Xposition Yposition Zposition Zrotation Xrotation Yrotation
  JOINT LeftUpLeg
  {
    OFFSET 8.64259 1.95398 -2.38835
    CHANNELS 3 Zrotation Xrotation Yrotation
    JOINT LeftLeg
    {
      OFFSET 43.7702 0 0
      CHANNELS 3 Zrotation Xrotation Yrotation
      JOINT LeftFoot
      {
        OFFSET 40.6238 0 0
        CHANNELS 3 Zrotation Xrotation Yrotation
        JOINT LeftToeBase
        {
          OFFSET 12.7242 0 0
          CHANNELS 3 Zrotation Xrotation Yrotation
          End Site
          {
            OFFSET 0 0 0
          }
        }
      }
    }
  }
  JOINT RightUpLeg
  {
    OFFSET -8.2249 1.95398 -2.59336
    CHANNELS 3 Zrotation Xrotation Yrotation
    JOINT RightLeg
    {
      OFFSET 43.5653 0 0
      CHANNELS 3 Zrotation Xrotation Yrotation
      JOINT RightFoot
      {
        OFFSET 40.6238 0 0
        CHANNELS 3 Zrotation Xrotation Yrotation
        JOINT RightToeBase
        {
          OFFSET 12.7242 0 0
          CHANNELS 3 Zrotation Xrotation Yrotation
          End Site
          {
            OFFSET 0 0 0
          }
        }
      }
    }
  }
  JOINT Spine
  {
    OFFSET 0.165834 0.87714 6.61349
    CHANNELS 3 Zrotation Xrotation Yrotation
    JOINT Spine1
    {
      OFFSET 7.38963 1.71661e-005 0
      CHANNELS 3 Zrotation Xrotation Yrotation
      JOINT Spine2
      {
        OFFSET 11.9445 1.14441e-005 0
        CHANNELS 3 Zrotation Xrotation Yrotation
        JOINT Spine3
        {
          OFFSET 14.7254 4.19617e-005 0
          CHANNELS 3 Zrotation Xrotation Yrotation
          JOINT Spine4
          {
            OFFSET 10.9679 0 0
            CHANNELS 3 Zrotation Xrotation Yrotation
            JOINT RightShoulder
            {
              OFFSET 2.46616 -1.6653 3.69651
              CHANNELS 3 Zrotation Xrotation Yrotation
              JOINT RightArm
              {
                OFFSET 13.0012 0 0
                CHANNELS 3 Zrotation Xrotation Yrotation
                JOINT RightForeArm
                {
                  OFFSET 28.7848 1.52588e-005 0
                  CHANNELS 3 Zrotation Xrotation Yrotation
                  JOINT RightHand
                  {
                    OFFSET 26.5688 1.52588e-005 0
                    CHANNELS 3 Zrotation Xrotation Yrotation
                    End Site
                    {
                      OFFSET 0 0 0
                    }
                  }
                }
              }
            }
            JOINT LeftShoulder
            {
              OFFSET 2.38034 -1.29275 -3.7523
              CHANNELS 3 Zrotation Xrotation Yrotation
              JOINT LeftArm
              {
                OFFSET 16.3182 6.10351e-005 0
                CHANNELS 3 Zrotation Xrotation Yrotation
                JOINT LeftForeArm
                {
                  OFFSET 27.0901 0 0
                  CHANNELS 3 Zrotation Xrotation Yrotation
                  JOINT LeftHand
                  {
                    OFFSET 24.5451 1.52588e-005 0
                    CHANNELS 3 Zrotation Xrotation Yrotation
                    End Site
                    {
                      OFFSET 0 0 0
                    }
                  }
                }
              }
            }
            JOINT Neck
            {
              OFFSET 5.0226 -0.0266342 0
              CHANNELS 3 Zrotation Xrotation Yrotation
              JOINT Head
              {
                OFFSET 6.69364 2.86102e-005 0
                CHANNELS 3 Zrotation Xrotation Yrotation
                End Site
                {
                  OFFSET 0 0 0
                }
              }
            }
          }
        }
      }
    }
  }
}
MOTION
Frames:	12
Frame Time:	0.0416667
33.6456 9.42946 44.0829 3.78245 -10.4768 -0.805155 -175.508 -8.65997 91.5958 -20.5839 36.4216 4.30092 87.7942 21.9505 3.09591 10.8697 -11.944 4.47402 174.796 -12.2939 90.2111 -14.5358 -20.1117 -2.46641 89.287 -18.9408 -1.36011 39.0738 -3.60058 3.48298 0.0434254 6.35091 -89.9778 14.1721 0.0969494 0.0311233 2.50117 0.0982244 0.0268173 -20.034 0.0831115 0.0588276 -0.0213646 0.0831128 0.0588315 95.8815 -13.936 -99.3824 23.5486 -9.45477 18.2961 7.40095 4.45194 -111.779 100.429 -20.2803 -23.2645 -86.7721 -37.5395 81.2729 6.64734 5.08592 12.0035 99.6863 -29.3666 -89.1425 -54.1402 39.263 -77.1167 42.1426 -2.60228 -4.62202 -8.01443 -0.298886 3.82313 
33.579 9.51018 44.1068 3.71511 -10.5263 -0.884995 -175.569 -8.42117 91.5356 -20.785 35.8116 4.29866 87.4681 21.1712 2.19123 13.4105 -10.9086 5.80272 174.821 -12.3467 90.2348 -14.4496 -20.5417 -2.52641 88.8914 -19.0615 -2.06169 39.7191 -3.80545 3.87563 0.0886306 6.30524 -90.0003 14.2631 0.175472 -0.0249271 2.59218 0.174204 -0.0326408 -19.9431 0.174846 0.0289546 0.0695867 0.17485 0.0289602 96.03 -13.1306 -99.279 24.2207 -9.3986 18.7755 9.13483 2.6325 -110.168 110.444 -17.424 -18.3944 -87.4135 -38.6381 80.3994 7.63301 5.53806 12.2904 99.8727 -29.0349 -88.9651 -54.0839 39.387 -77.3518 40.1172 -2.42428 -3.22003 -6.02304 -0.794967 2.48427 
33.589 9.48737 44.0945 3.79415 -10.4963 -0.914926 -175.59 -8.45104 91.5127 -20.6737 35.8366 4.2827 87.6902 21.2668 2.02713 13.7125 -11.2795 7.10974 174.783 -12.3351 90.2227 -14.5173 -20.5236 -2.51565 88.8188 -19.1434 -2.35058 41.0296 -4.21051 5.07591 0.0752151 6.29545 -89.999 14.283 0.14956 -0.0187331 2.61203 0.148591 -0.0253123 -19.9232 0.14827 0.027079 0.0894791 0.148275 0.0270697 95.3819 -13.6101 -100.859 23.5377 -7.97206 20.0986 10.3545 1.86992 -110.438 110.681 -16.6938 -17.9126 -87.5555 -38.8447 80.2004 7.91519 5.50933 12.5689 100.485 -28.9388 -88.8731 -53.1097 40.1003 -79.6499 39.8684 -2.28493 -3.10425 -5.98426 -0.716973 2.17849 
33.622 9.46797 44.11 3.89061 -10.4625 -0.886607 -175.675 -8.44439 91.481 -20.6735 35.9528 4.37147 87.7356 21.3269 2.05792 14.6134 -11.44 8.87463 174.771 -12.361 90.2529 -14.5275 -20.249 -2.4974 88.7445 -19.1086 -2.39574 42.9522 -4.75005 6.95598 0.0548601 6.32871 -89.9986 14.2165 0.109419 -0.012283 2.54553 0.108782 -0.0170867 -19.9896 0.108055 0.0211817 0.0229992 0.108055 0.0211778 95.5837 -13.5063 -100.353 23.7839 -8.43586 19.5299 7.85345 1.6272 -110.656 108.459 -19.1991 -20.115 -87.248 -38.2228 80.5932 7.34194 4.92707 12.2249 100.729 -29.0919 -89.032 -52.712 40.233 -80.3743 40.5364 -2.33811 -3.41937 -6.03106 -0.609728 2.66313 
33.6018 9.47782 44.1217 3.83965 -10.4118 -0.922104 -175.696 -8.44904 91.4402 -20.5546 35.6329 4.35068 87.8035 21.2609 1.8404 16.0481 -11.3005 10.8755 174.817 -12.3214 90.3134 -14.6243 -20.2091 -2.54617 88.5134 -19.1754 -2.84908 45.5523 -5.37686 9.31914 0.0690651 6.26247 -90.0086 14.349 0.132652 -0.0357934 2.67804 0.130951 -0.0416034 -19.8572 0.137269 0.00574225 0.155494 0.13728 0.00571739 95.1285 -13.2758 -101.689 24.4531 -7.86468 21.0036 12.1305 1.74747 -110.55 110.789 -14.6655 -16.5894 -87.9456 -39.0769 79.5871 8.03705 5.50965 13.0837 99.2577 -29.3908 -89.0176 -61.6312 39.9324 -69.6059 39.1099 -2.18802 -2.98161 -5.38433 -0.699132 2.28675 
33.576 9.46981 44.125 3.71849 -10.4108 -0.984094 -175.616 -8.47036 91.4528 -20.4976 36.085 4.27276 87.4433 21.2727 2.38086 18.2605 -10.705 13.2712 174.846 -12.3653 90.3781 -14.7079 -20.5926 -2.62828 88.0115 -19.3689 -3.92328 48.7734 -6.01622 11.9532 0.0747972 6.2764 -90.0058 14.3211 0.145368 -0.0319942 2.65015 0.143818 -0.0383695 -19.8851 0.148259 0.0131771 0.127568 0.148259 0.0131636 95.2924 -14.4507 -100.764 21.8291 -8.32987 20.2122 8.66091 1.70882 -110.493 109.117 -18.725 -19.6502 -87.7893 -39.0172 79.8386 7.78062 5.10896 13.0166 99.6092 -29.8524 -88.969 -57.7764 38.6544 -71.8589 39.6335 -1.88388 -2.23444 -5.72156 -0.742046 1.5458 
33.5552 9.47747 44.1279 3.85717 -10.4031 -0.976181 -175.633 -8.43516 91.4701 -20.5055 36.1408 4.28203 87.3523 21.2595 2.46611 20.5285 -10.0647 15.9288 174.895 -12.3898 90.5139 -14.8192 -20.3791 -2.64486 87.6978 -19.4546 -4.55622 52.0939 -6.50384 14.81 0.0574714 6.27555 -90.0163 14.3228 0.105891 -0.0474002 2.65189 0.1037 -0.0520215 -19.8833 0.115242 -0.0133816 0.129324 0.115237 -0.0134004 95.3776 -14.5975 -100.481 20.9997 -8.37618 19.9694 10.3105 1.41728 -110.46 110.038 -17.4679 -18.6431 -87.7995 -39.2829 79.8803 8.02096 5.18708 13.0836 99.6346 -29.4264 -89.0779 -56.7812 40.0311 -75.1093 39.751 -1.63727 -1.69922 -5.91083 -0.755311 1.13459 
33.6319 9.45163 44.1372 3.91391 -10.2751 -0.995385 -175.799 -8.37623 91.3385 -20.4179 35.6647 4.35593 87.7372 21.1755 1.75039 22.3432 -9.93549 19.313 174.826 -12.3812 90.5101 -14.7717 -20.4693 -2.63069 87.254 -19.5613 -5.37732 55.5805 -6.85949 17.619 0.0192816 6.24272 -90.0069 14.3885 0.0348471 -0.0187002 2.71752 0.0339859 -0.0202421 -19.8176 0.0388563 -0.00739201 0.195003 0.0388586 -0.00736593 94.9062 -15.1351 -101.514 20.0364 -7.79601 20.5486 10.3561 1.00547 -110.507 110.053 -17.7196 -18.8124 -87.5452 -39.2539 80.309 8.53551 4.37045 13.0455 95.9301 -29.7887 -90.9337 -63.6371 38.4047 -65.3633 39.3793 -1.72248 -2.27247 -5.54694 -0.569905 1.407 
33.6158 9.42881 44.1592 3.86004 -10.3251 -0.987445 -175.634 -8.44212 91.425 -20.4049 36.04 4.25057 87.3797 21.2415 2.39956 24.6177 -8.9739 21.7653 174.905 -12.5764 90.6571 -14.6966 -20.4918 -2.71202 86.7487 -19.6305 -6.2003 59.0292 -7.05488 20.3246 0.0689969 6.31802 -90.0229 14.2378 0.125497 -0.0633407 2.56688 0.122586 -0.0688031 -19.9683 0.138728 -0.0226779 0.0443209 0.138727 -0.0226915 95.9311 -13.8215 -99.2892 21.518 -8.75502 19.1027 10.5594 1.10726 -110.913 109.226 -17.5795 -18.9755 -87.2562 -37.8362 80.4945 6.88848 3.67066 12.5266 95.5189 -29.7326 -91.3198 -63.4937 38.0874 -65.0903 40.8976 -1.88592 -2.1465 -6.25457 -0.772239 1.72697 
33.6223 9.42633 44.1589 3.92746 -10.2919 -0.97784 -175.776 -8.48478 91.3363 -20.3284 35.9937 4.37238 87.3147 21.2629 2.50097 26.8727 -8.06162 24.6803 174.954 -12.5813 90.7965 -14.8029 -20.4692 -2.75167 86.2776 -19.7302 -7.10785 62.3968 -7.11859 22.809 0.0242907 6.26195 -90.0019 14.35 0.0472161 -0.0104727 2.67905 0.0467101 -0.0125442 -19.8561 0.048173 0.00419899 0.156543 0.0481742 0.004207 94.8189 -15.8241 -101.466 19.3077 -7.60326 20.4718 11.2756 0.555124 -110.804 110.141 -16.6695 -18.1011 -87.6553 -38.8302 80.0238 8.32913 3.77292 13.3043 95.0293 -29.6783 -91.509 -63.5586 37.9425 -64.8211 39.875 -1.76026 -2.54917 -5.81205 -0.47793 1.82238 
33.6247 9.42359 44.1723 3.94864 -10.2327 -1.05665 -175.785 -8.45721 91.2827 -20.205 35.8858 4.3039 87.4162 21.2184 2.26422 28.659 -7.3821 27.4566 174.965 -12.5887 90.8358 -14.8305 -20.4053 -2.82161 85.8824 -19.797 -7.81803 65.4429 -7.05898 25.0149 0.0295075 6.24686 -89.9988 14.3802 0.0590579 -0.00593029 2.70924 0.0587415 -0.00852953 -19.8259 0.058107 0.012097 0.186713 0.0581047 0.0120938 95.3171 -14.7146 -100.596 20.9328 -8.34281 20.0109 11.0204 1.2061 -110.845 110.125 -16.7921 -18.1964 -87.4926 -38.6189 80.2583 7.95891 4.22017 13.2092 95.256 -29.7417 -91.2677 -63.5863 37.9937 -64.8641 39.5107 -1.78353 -2.3929 -5.32484 -0.572121 1.67018 
33.6176 9.41645 44.1889 4.00628 -10.1063 -0.996766 -175.82 -8.27919 91.3532 -20.2591 35.5799 4.34545 87.8041 21.0972 1.48992 30.236 -6.78806 30.234 175.107 -12.602 91.0569 -14.7017 -20.1917 -2.87893 85.444 -19.7937 -8.41575 68.1881 -6.91843 26.9469 0.019501 6.23447 -89.9959 14.4045 0.0407558 0.0032369 2.73357 0.0408555 0.00143856 -19.8015 0.0378912 0.0153297 0.211091 0.0378964 0.0153401 94.8023 -15.4413 -101.727 19.6698 -7.39466 20.5878 11.3845 0.730968 -110.863 110.309 -16.5975 -18.0141 -87.6916 -38.5895 79.9067 7.99442 4.06396 13.495 96.0094 -29.7036 -91.0672 -62.7991 38.4439 -66.2938 39.1706 -1.9875 -2.9715 -5.02618 -0.489981 2.09024 
